<svg width="64" height="50" viewBox="0 0 64 50" fill="none" xmlns="http://www.w3.org/2000/svg">
<path d="M39.6529 9.2106L10.2748 6.58475L9.50923 15.525L13.1033 15.8462L13.5272 10.8972L35.7169 12.8805L35.293 17.8295L38.8872 18.1508L39.6529 9.2106ZM38.5172 26.1486L34.5793 25.7966C33.9796 27.6519 32.8935 29.0564 31.3213 30.0098C29.7471 30.9844 27.9183 31.3785 25.8348 31.1923L20.1779 30.6867C18.0318 30.4949 16.2667 29.7795 14.8821 28.5404C13.4957 27.3226 12.6545 25.746 12.3583 23.8104L8.51419 23.4668C8.87545 25.6226 9.57476 27.5083 10.6121 29.1239C11.6287 30.7377 12.9253 32.0226 14.502 32.9785C16.0562 33.954 17.8333 34.5311 19.8334 34.7098L25.4902 35.2155C28.5322 35.4873 31.1915 34.8349 33.4679 33.2582C35.7236 31.6795 37.4067 29.3096 38.5172 26.1486Z" fill="#F087BD"/>
<path d="M24.3471 9.27691L53.7252 6.65106L54.4908 15.5913L50.8966 15.9125L50.4728 10.9635L28.2831 12.9468L28.707 17.8958L25.1128 18.2172L24.3471 9.27691ZM25.4828 26.2149L29.4207 25.863C29.8218 27.1141 30.4365 28.1638 31.2649 29.012C32.1142 29.8583 33.1224 30.4761 34.2894 30.8651C35.4773 31.2523 36.7693 31.3835 38.1652 31.2587L43.8221 30.7531C45.2598 30.6245 46.5305 30.2643 47.6345 29.6723C48.7385 29.0803 49.6369 28.2922 50.3294 27.308C51.022 26.3237 51.4593 25.18 51.6417 23.8768L55.4858 23.5332C55.1245 25.689 54.4253 27.5747 53.3879 29.1902C52.3713 30.804 51.0747 32.0888 49.498 33.0449C47.9438 34.0204 46.1667 34.5974 44.1666 34.7761L38.5098 35.2817C35.4678 35.5537 32.8085 34.9013 30.5321 33.3244C28.2764 31.7458 26.5933 29.376 25.4828 26.2149Z" fill="#F087BD"/>
<path d="M43.9595 22.3869C45.1275 22.3869 46.0744 21.4196 46.0744 20.2263C46.0744 19.033 45.1275 18.0656 43.9595 18.0656C42.7915 18.0656 41.8447 19.033 41.8447 20.2263C41.8447 21.4196 42.7915 22.3869 43.9595 22.3869Z" fill="#68FFE8"/>
<path d="M19.7893 22.3709C20.9574 22.3709 21.9042 21.4036 21.9042 20.2103C21.9042 19.017 20.9574 18.0496 19.7893 18.0496C18.6213 18.0496 17.6745 19.017 17.6745 20.2103C17.6745 21.4036 18.6213 22.3709 19.7893 22.3709Z" fill="#68FFE8"/>
</svg>
