<svg width="54" height="62" viewBox="0 0 54 62" fill="none" xmlns="http://www.w3.org/2000/svg">
<path d="M26.8182 1L0.636353 15.6667V45.6667L26.8182 61L53 46.3333V16.3333L26.8182 1Z" stroke="#68FFE8" strokeWidth="1.09091"/>
<path d="M32.1626 25.5029L13.7405 23.9091L13.2604 29.3355L15.5141 29.5305L15.7799 26.5266L29.6944 27.7304L29.4286 30.7343L31.6825 30.9293L32.1626 25.5029ZM31.4504 35.7837L28.9811 35.5701C28.605 36.6962 27.924 37.5486 26.9381 38.1273C25.951 38.7189 24.8041 38.9581 23.4977 38.8451L19.9504 38.5382C18.6047 38.4217 17.4978 37.9875 16.6295 37.2354C15.7602 36.4963 15.2327 35.5393 15.047 34.3645L12.6364 34.1559C12.8629 35.4644 13.3015 36.609 13.952 37.5896C14.5894 38.5691 15.4025 39.349 16.3912 39.9292C17.3658 40.5213 18.4801 40.8716 19.7344 40.98L23.2816 41.287C25.1891 41.452 26.8567 41.056 28.2842 40.099C29.6986 39.1408 30.7541 37.7023 31.4504 35.7837Z" fill="#64FFDA"/>
<path d="M22.5648 25.5431L40.9869 23.9493L41.467 29.3758L39.2132 29.5707L38.9474 26.5668L25.0329 27.7707L25.2987 30.7745L23.0449 30.9696L22.5648 25.5431ZM23.2769 35.8239L25.7462 35.6103C25.9978 36.3697 26.3833 37.0069 26.9027 37.5217C27.4353 38.0354 28.0674 38.4104 28.7993 38.6464C29.5442 38.8814 30.3543 38.9611 31.2296 38.8853L34.777 38.5784C35.6785 38.5004 36.4753 38.2818 37.1676 37.9225C37.8599 37.5631 38.4232 37.0848 38.8575 36.4874C39.2918 35.89 39.566 35.1958 39.6804 34.4048L42.0909 34.1962C41.8644 35.5047 41.4259 36.6493 40.7754 37.6299C40.1379 38.6094 39.3248 39.3892 38.3362 39.9695C37.3616 40.5616 36.2472 40.9119 34.993 41.0203L31.4458 41.3272C29.5382 41.4923 27.8706 41.0963 26.4432 40.1392C25.0287 39.181 23.9732 37.7426 23.2769 35.8239Z" fill="#64FFDA"/>
<path d="M34.8631 33.5005C35.5955 33.5005 36.1893 32.9133 36.1893 32.189C36.1893 31.4647 35.5955 30.8776 34.8631 30.8776C34.1307 30.8776 33.5369 31.4647 33.5369 32.189C33.5369 32.9133 34.1307 33.5005 34.8631 33.5005Z" fill="#64FFDA"/>
<path d="M19.7067 33.4908C20.4391 33.4908 21.0329 32.9036 21.0329 32.1793C21.0329 31.455 20.4391 30.8679 19.7067 30.8679C18.9742 30.8679 18.3805 31.455 18.3805 32.1793C18.3805 32.9036 18.9742 33.4908 19.7067 33.4908Z" fill="#64FFDA"/>
</svg>
