<svg width="20" height="21" viewBox="0 0 20 21" fill="none" xmlns="http://www.w3.org/2000/svg">
<g clipPath="url(#clip0_8_26)">
<path d="M19.1666 2.83333C18.3686 3.39622 17.4851 3.82675 16.55 4.10833C16.0481 3.53125 15.3811 3.12224 14.6392 2.9366C13.8973 2.75096 13.1162 2.79766 12.4017 3.07037C11.6872 3.34309 11.0737 3.82866 10.6441 4.46142C10.2146 5.09419 9.98973 5.84361 9.99998 6.60833V7.44166C8.53551 7.47963 7.08437 7.15484 5.77582 6.4962C4.46727 5.83756 3.34191 4.86552 2.49998 3.66666C2.49998 3.66666 -0.833354 11.1667 6.66665 14.5C4.95042 15.665 2.90594 16.2491 0.833313 16.1667C8.33331 20.3333 17.5 16.1667 17.5 6.58333C17.4992 6.35121 17.4769 6.11966 17.4333 5.89166C18.2838 5.0529 18.884 3.99392 19.1666 2.83333V2.83333Z" stroke="currentColor" strokeWidth="2" strokeLinecap="round" strokeLinejoin="round"/>
</g>
<defs>
<clipPath id="clip0_8_26">
<rect width="20" height="20" fill="white" transform="translate(0 0.333328)"/>
</clipPath>
</defs>
</svg>
